<?xml version="1.0" standalone="no"?>
<!DOCTYPE svg PUBLIC "-//W3C//DTD SVG 20010904//EN"
 "http://www.w3.org/TR/2001/REC-SVG-20010904/DTD/svg10.dtd">
<svg version="1.0" xmlns="http://www.w3.org/2000/svg"
 width="1200.000000pt" height="1200.000000pt" viewBox="0 0 1200.000000 1200.000000"
 preserveAspectRatio="xMidYMid meet">

<g transform="translate(0.000000,1200.000000) scale(0.100000,-0.100000)"
fill="#000000" stroke="none">
<path d="M5178 10787 c-461 -243 -838 -445 -838 -448 0 -3 422 -229 938 -503
515 -274 940 -501 944 -504 4 -4 -307 -172 -690 -375 -383 -202 -742 -392
-797 -421 l-101 -54 -409 217 c-851 451 -1090 576 -1102 576 -6 0 -24 10 -40
23 -15 12 -32 22 -38 21 -5 0 -4 -3 3 -6 10 -4 10 -8 1 -20 -7 -8 -8 -13 -3
-12 27 5 34 -4 34 -41 0 -35 3 -40 24 -40 21 0 23 -4 19 -37 -2 -20 0 -39 4
-42 14 -11 33 -50 33 -70 0 -11 3 -27 6 -35 6 -15 8 -15 20 1 12 16 13 15 14
-15 0 -25 5 -35 20 -39 12 -3 20 -14 20 -25 0 -14 5 -18 15 -14 9 3 16 -1 16
-9 2 -23 4 -29 10 -40 4 -5 5 -19 3 -30 -1 -10 3 -26 9 -34 8 -10 8 -13 1 -8
-7 4 -11 -3 -11 -19 0 -14 2 -21 6 -16 11 18 34 -4 34 -32 0 -14 3 -23 8 -21
4 3 11 1 14 -5 4 -6 1 -9 -6 -8 -6 2 -14 -3 -17 -11 -3 -10 0 -12 12 -8 12 5
20 -1 28 -18 6 -14 17 -25 25 -25 11 0 19 -43 14 -74 -1 -5 7 -6 18 -3 12 3
22 -1 25 -10 3 -8 11 -11 17 -7 8 4 8 0 0 -15 -8 -14 -8 -21 -1 -21 5 0 10 -5
10 -11 0 -5 -4 -8 -9 -4 -5 3 -12 1 -16 -5 -3 -5 3 -10 14 -10 17 0 21 -7 22
-32 1 -18 1 -36 0 -40 0 -5 10 -8 23 -8 20 0 24 -4 21 -21 -3 -15 0 -19 10
-15 19 7 27 -8 27 -50 0 -27 4 -34 19 -34 12 0 19 -7 19 -20 0 -13 7 -20 20
-20 18 0 20 -7 20 -56 0 -47 3 -57 20 -61 18 -5 27 -38 21 -75 0 -5 2 -7 7 -7
22 4 32 -3 32 -21 0 -14 6 -20 18 -18 14 3 17 -6 20 -54 3 -50 6 -58 22 -58
19 0 24 -10 21 -38 -2 -9 6 -12 21 -10 20 3 23 -1 20 -26 -3 -21 0 -26 10 -21
10 6 11 5 1 -6 -19 -20 -16 -32 7 -26 18 5 20 0 20 -39 0 -37 3 -44 20 -44 13
0 20 -7 20 -20 0 -11 5 -20 11 -20 5 0 7 5 3 12 -5 7 -3 8 6 3 11 -7 10 -10
-1 -19 -22 -17 -21 -36 1 -36 14 0 20 -7 22 -22 0 -13 2 -29 2 -37 1 -18 26
-27 26 -10 0 7 3 10 6 7 3 -4 1 -15 -5 -26 -8 -16 -6 -21 15 -31 14 -6 23 -14
21 -19 -5 -7 17 -33 28 -32 3 0 9 0 13 0 8 0 14 -34 14 -87 0 -14 5 -20 14
-16 8 3 12 9 9 13 -3 5 -1 11 4 14 4 3 8 -2 8 -12 0 -78 4 -94 23 -99 15 -4
20 -14 20 -37 0 -24 3 -27 10 -16 8 12 10 10 11 -10 1 -14 2 -32 3 -40 0 -8
13 -16 29 -18 23 -3 27 -8 27 -36 0 -17 5 -37 11 -43 5 -5 11 -24 11 -42 1
-17 7 -36 14 -42 9 -7 11 -21 7 -37 -4 -16 -2 -23 4 -19 6 4 16 0 23 -8 7 -8
21 -15 31 -15 11 0 19 -7 19 -15 0 -9 8 -19 18 -22 9 -4 19 -10 22 -14 5 -7
130 -74 1149 -617 336 -179 420 -228 408 -236 -8 -6 -377 -202 -820 -436 -443
-234 -803 -428 -799 -431 4 -4 429 -231 945 -504 515 -274 937 -500 937 -504
0 -3 -357 -194 -794 -424 l-793 -417 -952 505 -951 506 -840 -443 c-462 -244
-840 -446 -840 -449 0 -7 4922 -2622 4935 -2622 10 1 1664 870 1677 882 5 4
-395 220 -887 481 -492 261 -895 477 -895 480 1 5 1583 840 1593 840 3 0 409
-214 901 -475 693 -368 900 -474 913 -467 180 90 1663 877 1663 881 0 4 -1101
591 -2446 1306 -1346 715 -2453 1305 -2461 1310 -12 9 -5 16 34 36 26 14 393
207 816 429 422 222 767 406 767 409 0 3 -399 218 -887 476 -487 259 -886 474
-886 480 1 5 357 197 793 428 l792 418 202 -107 c110 -59 224 -119 251 -134
166 -89 211 -113 310 -165 113 -60 188 -99 310 -165 371 -199 716 -380 725
-380 11 0 1691 883 1687 886 -2 2 -3426 1821 -3602 1914 -66 34 -138 73 -160
85 -22 12 -94 51 -160 85 -66 35 -142 75 -170 90 -27 15 -108 57 -180 95 -71
38 -165 88 -209 112 -43 24 -80 43 -82 43 -2 0 -52 26 -111 59 -103 56 -265
141 -267 141 -1 0 -378 -200 -838 -443z m-1664 -2322 c3 -8 1 -15 -4 -15 -6 0
-10 7 -10 15 0 8 2 15 4 15 2 0 6 -7 10 -15z m826 -1565 c0 -5 -5 -10 -11 -10
-5 0 -7 5 -4 10 3 6 8 10 11 10 2 0 4 -4 4 -10z"/>
<path d="M3120 9095 c0 -8 4 -15 10 -15 5 0 7 7 4 15 -4 8 -8 15 -10 15 -2 0
-4 -7 -4 -15z"/>
</g>
</svg>
