<?xml version="1.0" encoding="UTF-8"?>
<svg version="1.1" xmlns="http://www.w3.org/2000/svg" width="433" height="432">
<path d="M0 0 C0.89657822 -0.00979385 1.79315643 -0.01958771 2.71690369 -0.02967834 C43.70700558 -0.38536724 78.55909831 7.18015385 115.375 25.23828125 C113.84926082 28.48152145 112.41948036 30.28161988 109.625 32.55078125 C101.35453691 39.59709637 95.23009137 48.01865224 91.375 58.23828125 C86.83023947 57.73814014 83.15215309 56.40822847 79.00732422 54.60986328 C38.60793559 37.10910955 -8.57311284 36.4669256 -49.68603516 52.11083984 C-53.71082823 53.72374247 -57.67962444 55.44036706 -61.625 57.23828125 C-62.3557373 57.57118164 -63.08647461 57.90408203 -63.83935547 58.24707031 C-86.96495216 68.95908544 -107.92298215 85.16649962 -123.625 105.23828125 C-124.26824219 105.99238281 -124.91148438 106.74648437 -125.57421875 107.5234375 C-153.13068865 140.11050028 -166.08736897 185.97680442 -163.35351562 228.1875 C-159.78630951 270.27332568 -142.79272776 307.09734732 -114.625 338.23828125 C-113.44357422 339.54732422 -113.44357422 339.54732422 -112.23828125 340.8828125 C-84.5674552 369.96301848 -41.38891578 389.89906754 -1.21362305 391.36254883 C2.92086943 391.44570725 7.05228749 391.48488371 11.1875 391.48828125 C12.29306244 391.48929337 12.29306244 391.48929337 13.42095947 391.49032593 C24.98703042 391.47352163 36.07966126 390.85063367 47.375 388.23828125 C48.13312988 388.07199219 48.89125977 387.90570313 49.67236328 387.734375 C95.23482644 377.56544336 134.5919461 349.81312132 159.71484375 310.6171875 C183.08574049 273.33090861 193.24188804 226.07152007 183.93603516 182.63183594 C181.3617191 171.64898364 178.30353713 160.71466992 173.94140625 150.296875 C173.21600219 147.66040644 173.05551947 146.67274717 174.375 144.23828125 C176.82999387 142.84353412 179.17832341 141.68251704 181.75 140.55078125 C190.20726069 136.58750265 197.69000166 131.9373169 203.546875 124.46875 C204.45179688 123.36466797 204.45179688 123.36466797 205.375 122.23828125 C206.035 122.23828125 206.695 122.23828125 207.375 122.23828125 C231.7075969 177.38805038 235.78253869 237.3154262 214.34375 294.33984375 C203.65516207 321.51032189 188.11543656 345.80009538 167.80273438 366.76367188 C166.41449414 368.19749045 165.0429068 369.64737406 163.671875 371.09765625 C156.77440466 378.2371431 149.32920906 384.33866494 141.375 390.23828125 C140.37082031 390.98722656 139.36664063 391.73617188 138.33203125 392.5078125 C105.07396786 416.38649967 63.91591131 432.05716538 22.66015625 432.4765625 C21.85545898 432.48640167 21.05076172 432.49624084 20.22167969 432.50637817 C-34.87797439 433.04066421 -86.43306408 417.76952062 -128.625 381.23828125 C-129.44097656 380.53316406 -130.25695312 379.82804687 -131.09765625 379.1015625 C-141.92823727 369.54112885 -151.67976109 359.55959899 -160.31787109 347.98535156 C-161.56758103 346.31502576 -162.83898041 344.66330961 -164.11328125 343.01171875 C-197.16307902 299.35098869 -210.05778581 240.7923051 -203.01855469 186.96289062 C-197.49684007 148.73563556 -182.73224446 112.48413264 -158.625 82.23828125 C-157.82964844 81.23796875 -157.03429687 80.23765625 -156.21484375 79.20703125 C-120.50175138 35.25509449 -68.48760308 6.56835177 -12.06336975 0.4521637 C-8.04382943 0.09958833 -4.03314576 0.03653058 0 0 Z " fill="#468AFF" transform="translate(204.625,-0.23828125)"/>
<path d="M0 0 C1.72379183 1.48220933 3.43344325 2.98110614 5.125 4.5 C5.81980469 5.11230469 6.51460937 5.72460938 7.23046875 6.35546875 C23.58725451 21.66750971 34.87579351 44.86419702 36.30200195 67.28222656 C36.93097265 96.62082803 31.16416691 122.00862146 11.125 144.5 C10.46113281 145.24636719 9.79726563 145.99273437 9.11328125 146.76171875 C-8.09730147 164.99030267 -32.33245726 175.66510985 -57.3203125 176.72265625 C-86.27583118 177.4911496 -110.54045205 167.92539151 -132.05078125 148.5390625 C-149.22976407 132.19401088 -160.33438284 108.06790975 -161.2109375 84.37109375 C-161.64406346 53.65465307 -153.12440856 28.55226068 -131.6875 5.9375 C-96.00675691 -28.64724757 -38.54203068 -30.80181544 0 0 Z " fill="#468AFF" transform="translate(278.875,138.5)"/>
<path d="M0 0 C9.78069222 8.38136815 15.35170108 17.34405314 17.49609375 30.05859375 C18.50263596 44.65345584 15.14814399 56.46708045 5.80859375 67.74609375 C-0.64023051 74.69191386 -8.43414539 78.61813601 -17.50390625 81.05859375 C-18.30828125 81.28546875 -19.11265625 81.51234375 -19.94140625 81.74609375 C-33.76049068 83.43134795 -46.1931976 79.70987563 -57.62890625 71.93359375 C-67.49447625 62.93686656 -72.75765232 51.07445295 -73.5390625 37.84765625 C-73.39728129 26.59968036 -70.0903733 17.11498594 -63.50390625 8.05859375 C-62.69953125 6.85203125 -62.69953125 6.85203125 -61.87890625 5.62109375 C-46.04612242 -11.4616467 -18.56928435 -14.39771345 0 0 Z " fill="#468AFF" transform="translate(385.50390625,44.94140625)"/>
</svg>
