<?xml version="1.0" encoding="UTF-8"?>
<svg version="1.1" xmlns="http://www.w3.org/2000/svg" width="1024" height="1024">
<path d="M0 0 C0.73573242 0.12115173 1.47146484 0.24230347 2.22949219 0.36712646 C23.21076958 3.84670027 43.72408802 8.51651075 64 15 C65.65781494 15.52980469 65.65781494 15.52980469 67.34912109 16.0703125 C82.98529358 21.13879342 98.06539659 27.14865423 113 34 C113.89025879 34.40331543 114.78051758 34.80663086 115.69775391 35.22216797 C149.13058255 50.41668123 179.88025173 70.44714515 208 94 C208.59232422 94.49322754 209.18464844 94.98645508 209.79492188 95.49462891 C224.35227879 107.64604584 238.80136106 120.48617902 251.16796875 134.890625 C253.15311587 137.17629546 255.2003983 139.39701378 257.25 141.625 C262.34943853 147.27853712 267.00829093 153.2371607 271.65332031 159.26367188 C272.8983024 160.86887721 274.16315465 162.45861837 275.4296875 164.046875 C319.30552883 219.57498895 347.18455783 288.30462053 358 358 C358.19754883 359.22976563 358.39509766 360.45953125 358.59863281 361.7265625 C365.05234679 403.55423408 364.97517286 448.23859 358 490 C357.87884827 490.73573242 357.75769653 491.47146484 357.63287354 492.22949219 C354.15329973 513.21076958 349.48348925 533.72408802 343 554 C342.64679687 555.10520996 342.29359375 556.21041992 341.9296875 557.34912109 C336.86120658 572.98529358 330.85134577 588.06539659 324 603 C323.59668457 603.89025879 323.19336914 604.78051758 322.77783203 605.69775391 C307.58331877 639.13058255 287.55285485 669.88025173 264 698 C263.50677246 698.59232422 263.01354492 699.18464844 262.50537109 699.79492188 C250.35395416 714.35227879 237.51382098 728.80136106 223.109375 741.16796875 C220.82370454 743.15311587 218.60298622 745.2003983 216.375 747.25 C210.72146288 752.34943853 204.7628393 757.00829093 198.73632812 761.65332031 C197.13112279 762.8983024 195.54138163 764.16315465 193.953125 765.4296875 C138.42501105 809.30552883 69.69537947 837.18455783 0 848 C-1.22976563 848.19754883 -2.45953125 848.39509766 -3.7265625 848.59863281 C-45.55423408 855.05234679 -90.23859 854.97517286 -132 848 C-132.73573242 847.87884827 -133.47146484 847.75769653 -134.22949219 847.63287354 C-155.21076958 844.15329973 -175.72408802 839.48348925 -196 833 C-197.10520996 832.64679687 -198.21041992 832.29359375 -199.34912109 831.9296875 C-214.98529358 826.86120658 -230.06539659 820.85134577 -245 814 C-245.89025879 813.59668457 -246.78051758 813.19336914 -247.69775391 812.77783203 C-281.13058255 797.58331877 -311.88025173 777.55285485 -340 754 C-340.59232422 753.50677246 -341.18464844 753.01354492 -341.79492188 752.50537109 C-356.35227879 740.35395416 -370.80136106 727.51382098 -383.16796875 713.109375 C-385.15311587 710.82370454 -387.2003983 708.60298622 -389.25 706.375 C-394.34943853 700.72146288 -399.00829093 694.7628393 -403.65332031 688.73632812 C-404.8983024 687.13112279 -406.16315465 685.54138163 -407.4296875 683.953125 C-467.20212425 608.30669685 -495.7086896 511.50139137 -491.85571289 371.87426758 C-488.65616055 345.39868072 -483.12432527 319.40732276 -475 294 C-474.47019531 292.34218506 -474.47019531 292.34218506 -473.9296875 290.65087891 C-468.86120658 275.01470642 -462.85134577 259.93460341 -456 245 C-455.59668457 244.10974121 -455.19336914 243.21948242 -454.77783203 242.30224609 C-439.58331877 208.86941745 -419.55285485 178.11974827 -396 150 C-395.50677246 149.40767578 -395.01354492 148.81535156 -394.50537109 148.20507812 C-382.35395416 133.64772121 -369.51382098 119.19863894 -355.109375 106.83203125 C-352.82370454 104.84688413 -350.60298622 102.7996017 -348.375 100.75 C-342.72146288 95.65056147 -336.7628393 90.99170907 -330.73632812 86.34667969 C-329.13112279 85.1016976 -327.54138163 83.83684535 -325.953125 82.5703125 C-270.42501105 38.69447117 -201.69537947 10.81544217 -132 0 C-130.77023437 -0.19754883 -129.54046875 -0.39509766 -128.2734375 -0.59863281 C-86.44576592 -7.05234679 -41.76141 -6.97517286 0 0 Z M-281 65 C-281.83031738 65.49709473 -282.66063477 65.99418945 -283.51611328 66.50634766 C-299.48906105 76.14218476 -314.66054049 87.0661735 -329 99 C-330.5159375 100.25683594 -330.5159375 100.25683594 -332.0625 101.5390625 C-343.23879256 110.86319799 -353.82296019 120.7254618 -364.15093994 130.97570801 C-365.15816232 131.97488861 -366.16686031 132.97258441 -367.17718506 133.96862793 C-373.92229008 140.62846587 -380.08137782 147.58657988 -386 155 C-386.93491198 156.10171578 -387.8762511 157.19806189 -388.828125 158.28515625 C-396.5047168 167.08847362 -403.31324311 176.43020054 -410 186 C-410.43666992 186.62068359 -410.87333984 187.24136719 -411.32324219 187.88085938 C-419.650173 199.78024821 -426.82409082 212.38524341 -434 225 C-434.59941406 226.04341553 -434.59941406 226.04341553 -435.2109375 227.10791016 C-447.41770161 248.46401108 -456.30928691 271.69981637 -464 295 C-464.36077637 296.0921582 -464.72155273 297.18431641 -465.09326172 298.30957031 C-477.97410528 337.96760319 -484.22679679 379.64727488 -484.13037109 421.30688477 C-484.12500084 424.06206748 -484.13035632 426.81708775 -484.13671875 429.57226562 C-484.14003588 439.43110213 -483.90519898 449.17580738 -483 459 C-475.14474257 456.48473211 -468.11125218 453.69465965 -461 449.5 C-453.92166484 445.36452497 -446.90955536 442.28160251 -439 440 C-437.90171875 439.68160156 -436.8034375 439.36320312 -435.671875 439.03515625 C-409.90399442 432.76651266 -382.62728941 437.22935321 -359.9375 450.5625 C-338.89497062 462.91433124 -314.41408394 464.98170028 -291 459 C-282.66071372 456.55091593 -275.35492426 452.61612003 -267.75 448.5 C-245.88735361 436.68988993 -219.78046739 433.01109178 -195.42578125 438.96875 C-185.66072965 441.90828663 -176.74730478 445.38561544 -167.9375 450.5625 C-153.80531734 458.85800156 -138.43569967 462.66781624 -122 462 C-124.56188475 453.68393433 -127.83080419 444.35022515 -134 438 C-138.65379871 435.68254998 -143.89073207 436.01894264 -148.97802734 436.04736328 C-160.31131717 435.78188897 -171.69060796 428.45575931 -181.58984375 423.62890625 C-189.6413516 419.70312395 -196.93632104 416.28268039 -205.875 415 C-209.93755271 414.14472574 -211.50522163 413.64963267 -214.046875 410.3125 C-215.66388402 406.91838207 -216.89387415 403.5918923 -218 400 C-218.32355469 399.00355469 -218.64710938 398.00710938 -218.98046875 396.98046875 C-224.78082041 377.50980471 -221.90211118 358.19809452 -212.625 340.35546875 C-203.3785791 323.99834917 -188.48276936 313.70548404 -170.6875 308.25 C-152.907585 303.84279727 -134.22281369 306.01403387 -118.03515625 314.56640625 C-101.02103008 324.85124269 -89.33192905 339.93397165 -84.125 359.1875 C-80.44552343 377.47471888 -83.24691604 396.00866663 -93 412 C-96.79987141 417.54969933 -101.13455186 422.37189079 -106 427 C-103.9162203 432.69469569 -100.58527848 437.25078906 -97.125 442.1875 C-96.49980469 443.10208984 -95.87460937 444.01667969 -95.23046875 444.95898438 C-94.31587891 446.26899414 -94.31587891 446.26899414 -93.3828125 447.60546875 C-92.55354248 448.79885864 -92.55354248 448.79885864 -91.70751953 450.01635742 C-89.85410016 452.16949331 -88.73677627 453.22211564 -86 454 C-83.55390469 453.32720597 -83.55390469 453.32720597 -81.0703125 451.9296875 C-79.64054077 451.20543579 -79.64054077 451.20543579 -78.18188477 450.46655273 C-77.17311279 449.94134033 -76.16434082 449.41612793 -75.125 448.875 C-50.44257869 436.58265215 -23.66550049 433.22841707 2.91064453 441.75830078 C11.62459018 444.74697692 19.8856475 448.8690137 28.07299805 453.06152344 C49.37419251 463.91749714 74.28609273 465.26889288 97 458 C103.17766898 455.77393165 109.03461253 453.02987303 114.859375 450.01171875 C140.88605113 436.52867131 167.70140076 433.53065416 196 442 C201.98960219 444.0286069 207.5811842 446.78226144 213.21875 449.625 C236.84851554 461.45380838 261.09172604 466.84994371 287.08300781 458.65039062 C294.40073847 456.16765572 301.34177112 453.1525681 307.875 449 C319.61314954 441.70434751 332.51635576 438.95639515 346 437 C348.00050384 436.66970392 350.00059456 436.33688129 352 436 C352.96586185 355.88547441 334.52151928 278.07232981 293 209 C292.50290527 208.16968262 292.00581055 207.33936523 291.49365234 206.48388672 C281.85781524 190.51093895 270.9338265 175.33945951 259 161 C257.74316406 159.4840625 257.74316406 159.4840625 256.4609375 157.9375 C247.13680201 146.76120744 237.2745382 136.17703981 227.02429199 125.84906006 C226.02511139 124.84183768 225.02741559 123.83313969 224.03137207 122.82281494 C217.37153413 116.07770992 210.41342012 109.91862218 203 104 C201.89828422 103.06508802 200.80193811 102.1237489 199.71484375 101.171875 C190.91152638 93.4952832 181.56979946 86.68675689 172 80 C171.37931641 79.56333008 170.75863281 79.12666016 170.11914062 78.67675781 C158.21975179 70.349827 145.61475659 63.17590918 133 56 C132.30438965 55.60039062 131.6087793 55.20078125 130.89208984 54.7890625 C109.53598892 42.58229839 86.30018363 33.69071309 63 26 C61.9078418 25.63922363 60.81568359 25.27844727 59.69042969 24.90673828 C19.29838124 11.78748804 -22.96367492 5.756925 -65.375 5.8125 C-66.30263153 5.81343658 -67.23026306 5.81437317 -68.18600464 5.81533813 C-142.95276186 5.9784808 -216.86576801 26.44692445 -281 65 Z M-181.3125 348.25 C-188.63461682 357.08091666 -192.52997577 366.90992639 -191.875 378.4375 C-190.3444759 390.89279956 -184.80924646 400.3752106 -175.28515625 408.39453125 C-165.5508862 415.23347995 -155.06916318 417.47323217 -143.37890625 415.57421875 C-133.80045128 413.07615769 -124.41520314 407.42190022 -119 399 C-112.97002433 388.31954781 -109.85080747 378.35819832 -112.68359375 366.0234375 C-116.50206996 354.77398477 -123.32014931 345.24551416 -133.84765625 339.42578125 C-150.68162714 331.51857285 -168.35729162 334.49268678 -181.3125 348.25 Z M-460.66015625 460.1875 C-467.44971162 463.8721242 -474.76988843 466.31609495 -482 469 C-481.01 476.26 -480.02 483.52 -479 491 C-473.8598565 489.31422853 -473.8598565 489.31422853 -469.22265625 487.01171875 C-468.55177979 486.63732666 -467.88090332 486.26293457 -467.18969727 485.87719727 C-466.13673462 485.28829712 -466.13673462 485.28829712 -465.0625 484.6875 C-449.31485551 476.12702216 -433.78959556 472.57421999 -415.875 472.625 C-414.84419815 472.62531723 -414.84419815 472.62531723 -413.79257202 472.62564087 C-403.30134198 472.65789336 -393.89183022 473.3359113 -384 477 C-382.54207031 477.50853516 -382.54207031 477.50853516 -381.0546875 478.02734375 C-374.60395053 480.49690382 -368.62793332 483.78894996 -362.5625 487.0625 C-342.85026164 497.69069481 -318.71285515 500.90148225 -296.75 495.5 C-287.20984966 492.35697026 -278.17944452 487.72912975 -269.3046875 483.06640625 C-254.5636688 475.39909787 -240.9598681 472.81442218 -224.5 472.75 C-223.21351563 472.729375 -221.92703125 472.70875 -220.6015625 472.6875 C-201.08251167 472.60895251 -185.59071601 478.98983609 -168.75341797 488.03857422 C-149.7476114 498.09763582 -125.72598002 500.65877298 -104.75 495.5 C-95.41218159 492.42734563 -86.51652685 487.93986338 -77.85546875 483.32421875 C-56.06267592 471.78685784 -28.31540453 468.77601101 -4.60546875 475.80859375 C-2.82076172 476.39833984 -2.82076172 476.39833984 -1 477 C0.11761719 477.36222656 1.23523438 477.72445313 2.38671875 478.09765625 C9.05640191 480.47106582 15.09276785 483.62825102 21.26074219 487.04443359 C27.88917128 490.6318446 34.74062574 492.98610908 42 495 C42.99229614 495.2781958 42.99229614 495.2781958 44.00463867 495.56201172 C67.10730622 501.42860824 90.15578889 495.6563567 110.77075195 485.04833984 C134.99553798 472.61007233 163.50363366 468.06420784 189.98095703 476.31103516 C197.58323571 478.90518636 204.80501533 482.27991366 211.88671875 486.0546875 C233.4515328 497.51065818 257.83742754 501.32167795 281.61328125 494.19140625 C288.86841604 491.63913853 295.68054188 488.76374493 302.4128418 485.04833984 C316.46848878 477.29163144 330.80732576 473.25454245 346.8828125 472.34375 C347.58148437 472.2303125 348.28015625 472.116875 349 472 C352.67164961 464.65670077 351.1030287 453.94465783 351 446 C336.24472314 447.42309777 324.34228339 451.1613277 311.15625 457.90625 C285.4306271 470.9870752 257.10779984 475.94252662 229 467 C221.31222351 464.2723092 214.09805023 460.57429639 206.85375977 456.85693359 C183.88914231 445.10682793 159.97437893 443.24022612 135.3125 450.5 C129.36229318 452.60344313 123.85340952 455.5622908 118.25 458.4375 C102.26595811 466.63891297 86.34629054 471.41373594 68.25 471.3125 C66.67629639 471.30512817 66.67629639 471.30512817 65.07080078 471.29760742 C56.71074954 471.17214875 49.0712537 470.31281539 41 468 C39.92878906 467.69449219 38.85757813 467.38898438 37.75390625 467.07421875 C30.17295143 464.61866801 23.36336653 461.16934713 16.3125 457.5 C-6.40148134 445.73513187 -30.74370789 442.85447337 -55.4453125 449.99609375 C-62.46802281 452.53940613 -68.87417814 456.04893366 -75.40893555 459.6159668 C-80.43758496 462.30765051 -85.49931707 464.53224837 -90.875 466.4375 C-91.52758789 466.67202881 -92.18017578 466.90655762 -92.85253906 467.14819336 C-117.98135335 475.64912416 -146.69364674 472.55077134 -170.21728516 460.93212891 C-172.9034523 459.52761149 -175.47871417 457.95838811 -178.0625 456.375 C-197.3379378 444.75227666 -221.37868502 443.41879891 -242.94042969 448.45654297 C-252.23087239 450.90800402 -260.37211467 455.10105575 -268.58398438 460.0246582 C-273.11717011 462.66710864 -277.74532217 464.62306344 -282.6875 466.375 C-283.35185059 466.61347656 -284.01620117 466.85195313 -284.70068359 467.09765625 C-309.89892141 475.61814517 -338.61835501 472.58795895 -362.21728516 460.93212891 C-364.9034523 459.52761149 -367.47871417 457.95838811 -370.0625 456.375 C-398.17160309 439.42574407 -433.70353111 443.62156301 -460.66015625 460.1875 Z M-469.74267578 497.8425293 C-472.11215331 499.05750799 -474.51449124 500.04814382 -477 501 C-476.21782082 505.08521009 -475.42262373 509.16777968 -474.625 513.25 C-474.40328125 514.40886719 -474.1815625 515.56773437 -473.953125 516.76171875 C-473.73398437 517.87675781 -473.51484375 518.99179687 -473.2890625 520.140625 C-473.09006348 521.16704102 -472.89106445 522.19345703 -472.68603516 523.25097656 C-472.05897016 525.76369964 -471.26462527 527.75282201 -470 530 C-468.52853516 529.22076172 -468.52853516 529.22076172 -467.02734375 528.42578125 C-441.05612356 514.90464862 -412.90269943 510.48053741 -384.5625 519.375 C-375.97739674 522.21557693 -368.21505724 526.43474209 -360.28564453 530.73120117 C-353.00533396 534.6246488 -346.14956006 537.41941132 -338 539 C-336.68708984 539.28037109 -336.68708984 539.28037109 -335.34765625 539.56640625 C-312.86279552 542.47868109 -291.59344137 538.70623683 -272.1875 527 C-251.3435094 514.48823962 -224.53975358 511.73787366 -201 517 C-190.80590498 519.62344536 -181.74656255 523.39979534 -172.69238281 528.73901367 C-153.37562731 540.08434946 -130.38194035 543.06915925 -108.4375 538.875 C-97.79650415 536.09908804 -88.19385095 531.73223499 -78.625 526.4375 C-55.89851664 513.97032652 -28.4485766 511.67830034 -3.57080078 518.68408203 C6.084303 521.71731395 14.88792739 525.86584 23.70507812 530.78564453 C43.04320334 541.29608841 67.10318923 543.1066355 88.15625 537.1875 C97.06489026 534.48844661 105.12027173 530.98981256 113.25 526.5 C136.16479894 513.94323792 163.11332737 511.99431289 188.23291016 518.5859375 C197.32201132 521.24676314 205.48470045 525.17321809 213.75292969 529.73706055 C220.60457676 533.46385467 227.47512333 535.93672737 235 538 C235.87140625 538.24492188 236.7428125 538.48984375 237.640625 538.7421875 C261.54312761 544.22923999 285.43393233 537.5150901 306.3125 525.9375 C317.54333996 519.74149197 329.32464573 516.62633514 342 515 C345.15751431 504.18383397 346.53862819 493.14589692 348 482 C333.79729261 481.14405548 322.35867134 485.46483403 310.04296875 491.91015625 C283.47496266 505.80163004 254.1745622 511.05520841 225 502 C218.9909904 499.98376692 213.40765833 497.20780783 207.75 494.375 C182.79166542 481.96575863 158.79348081 477.37880357 131.5625 485.671875 C126.13899104 487.6937972 121.07553952 490.31162224 115.9453125 492.9765625 C91.01884258 505.89643773 62.31517025 510.8986907 34.9921875 502.64160156 C26.39719278 499.87350767 18.44579123 496.32087733 10.5625 491.9375 C-9.5238628 480.91020414 -33.16380968 478.23718244 -55.31640625 484.08984375 C-64.93892317 486.89561197 -73.45571289 491.21596945 -82.2199707 496.01879883 C-103.23437938 507.31655356 -131.24426227 510.12342782 -154.34838867 503.90649414 C-164.68625513 500.76682631 -174.25895275 496.00901187 -183.6875 490.8125 C-203.3188411 480.06601112 -225.93755076 478.73216485 -247.48828125 483.82421875 C-256.76210643 486.59914531 -264.86979877 491.02183561 -273.35131836 495.61010742 C-295.26694446 507.24365681 -324.28184522 510.59445872 -348.25 503.33203125 C-358.07432426 499.8423494 -367.20168873 495.52265927 -376.28515625 490.4140625 C-407.91207944 473.94075862 -439.99181065 481.41790184 -469.74267578 497.8425293 Z M-467 539 C-466.4236726 545.13577824 -465.08400237 550.60349539 -463.125 556.4375 C-462.74021484 557.65856445 -462.74021484 557.65856445 -462.34765625 558.90429688 C-462.09113281 559.67708984 -461.83460938 560.44988281 -461.5703125 561.24609375 C-461.34102051 561.94404053 -461.11172852 562.6419873 -460.87548828 563.36108398 C-460.04546014 565.36694555 -460.04546014 565.36694555 -457 566 C-454.27255621 565.10767133 -454.27255621 565.10767133 -451.25 563.75 C-426.53218682 554.03072844 -398.26806114 555.67928758 -374.02050781 566.05517578 C-370.54005719 567.68269438 -367.2476874 569.61710604 -363.9375 571.5625 C-342.88889478 583.93148006 -318.43451363 586.04363772 -295 580 C-286.59958869 577.52990387 -279.18098051 573.55610991 -271.5 569.4375 C-263.8077385 565.31457857 -256.58450446 561.845563 -248 560 C-247.22011719 559.82847412 -246.44023437 559.65694824 -245.63671875 559.48022461 C-238.47309185 558.0233362 -231.54928501 557.64970225 -224.25 557.6875 C-222.53321045 557.69595947 -222.53321045 557.69595947 -220.78173828 557.70458984 C-203.04856769 557.95838752 -187.18603593 562.60095008 -171.9375 571.5625 C-150.90351572 583.92288822 -126.42077156 586.06386853 -103 580 C-95.4493994 577.71329792 -88.69310889 574.34330436 -81.8125 570.5625 C-58.36411739 557.72678409 -30.94094286 553.94233953 -5 561 C4.63725764 563.96686256 13.52495151 568.18480675 22.5625 572.625 C31.2696177 576.8966581 39.45284104 580.18975947 49 582 C49.72445312 582.14695312 50.44890625 582.29390625 51.1953125 582.4453125 C72.10531031 585.85740419 93.21318068 580.15699564 111.375 570 C134.92713999 556.83952449 162.77478002 554.40096875 188.71728516 561.31542969 C195.09885473 563.22921804 201.04347112 566.04967425 207 569 C218.18974119 574.52815153 228.70501655 579.49829121 241 582 C241.72960937 582.14953125 242.45921875 582.2990625 243.2109375 582.453125 C265.54605659 586.03428334 287.40709769 579.35330419 306.55664062 568.27392578 C310.22054534 566.21403077 313.36773595 564.78502796 317.53515625 564.109375 C324.38299086 562.89000757 324.38299086 562.89000757 330 559 C335.50622352 548.62534597 337.76522723 536.42113238 340 525 C327.28702699 525.66910384 316.57130831 530.51915754 305.5625 536.5 C280.67437838 549.98069272 253.27447118 552.65783229 226 545 C218.08009189 542.53890706 210.79392344 538.95370103 203.5625 534.9375 C182.96204892 523.51081392 158.67700865 520.87437789 136 527 C127.32529167 529.56206005 119.40587267 533.20440008 111.5 537.5625 C87.66224927 550.67367169 59.9821538 552.29498934 34 545 C26.08009189 542.53890706 18.79392344 538.95370103 11.5625 534.9375 C-9.05161009 523.50323752 -33.30985915 520.8939041 -56 527 C-66.01693364 529.92463387 -74.98684904 534.48916969 -84.12841797 539.44946289 C-90.56097619 542.89073023 -96.86796887 545.36438753 -104 547 C-104.86367188 547.22171875 -105.72734375 547.4434375 -106.6171875 547.671875 C-132.59617999 553.24418064 -157.56454184 547.40006849 -180.375 534.9375 C-201.44462999 523.44769063 -225.79840086 520.50355224 -249 527 C-257.38841981 529.5261188 -264.81304425 533.43777549 -272.5 537.5625 C-280.22480952 541.69993668 -287.40072234 545.08513353 -296 547 C-296.86109375 547.22042969 -297.7221875 547.44085937 -298.609375 547.66796875 C-324.10925958 553.15855083 -348.79738619 547.65234371 -371.25 535.5 C-403.13413632 518.27632302 -436.02485167 521.40854915 -467 539 Z M-455 575 C-454.44655699 580.96927821 -451.9955457 585.88805352 -449.5 591.25 C-449.08363281 592.16007813 -448.66726563 593.07015625 -448.23828125 594.0078125 C-446.16967642 598.52802408 -446.16967642 598.52802408 -444 603 C-443.23921143 602.85997559 -442.47842285 602.71995117 -441.69458008 602.57568359 C-432.98730076 601.09043619 -424.51301643 600.61356869 -415.6875 600.625 C-415.00779144 600.62521149 -414.32808289 600.62542297 -413.6277771 600.62564087 C-403.19447387 600.65799814 -393.83724408 601.35613086 -384 605 C-383.02804687 605.33902344 -382.05609375 605.67804687 -381.0546875 606.02734375 C-374.60395053 608.49690382 -368.62793332 611.78894996 -362.5625 615.0625 C-342.81306024 625.71075259 -318.69165802 628.87090739 -296.6875 623.5 C-289.43488658 621.1161561 -282.71193351 617.58938863 -275.97753906 614.03466797 C-251.71768683 601.34167368 -221.99322269 595.4529116 -195.1953125 603.81640625 C-194.14085937 604.20699219 -193.08640625 604.59757813 -192 605 C-191.02804687 605.33902344 -190.05609375 605.67804687 -189.0546875 606.02734375 C-182.60395053 608.49690382 -176.62793332 611.78894996 -170.5625 615.0625 C-150.85026164 625.69069481 -126.71285515 628.90148225 -104.75 623.5 C-95.41218159 620.42734563 -86.51652685 615.93986338 -77.85546875 611.32421875 C-55.82205314 599.65946931 -28.0440971 596.96900612 -4.0234375 603.67578125 C4.31277019 606.29671073 12.18680147 609.95038595 19.88671875 614.0546875 C41.45640969 625.51324896 65.83587682 629.31586989 89.6171875 622.19140625 C96.945781 619.61031963 103.86715509 616.60047467 110.77099609 613.04833984 C135.02443473 600.59387135 163.47888522 595.97363574 189.99707031 604.31103516 C197.58941267 606.92263805 204.80756379 610.28127207 211.88671875 614.0546875 C233.44693902 625.50821781 257.82960569 629.3219159 281.6015625 622.1953125 C286.86853376 620.34279157 291.96065151 618.41012319 297 616 C298.03125 615.566875 299.0625 615.13375 300.125 614.6875 C309.95776987 609.96777046 313.11940406 602.57851322 317 593 C317.75518227 591.19399952 318.51039157 589.38801034 319.265625 587.58203125 C323.17004017 579.53225649 323.17004017 579.53225649 325 571 C319.91430757 572.50069613 315.43247023 574.20091445 310.8125 576.8125 C285.81988442 590.84038869 256.88207604 596.2859555 228.98852539 588.47753906 C220.47076174 585.8965887 212.77572407 582.05389197 204.89648438 577.97119141 C181.85730977 566.17280873 156.83983975 563.09994669 132 571 C125.80577321 573.15684972 120.01189421 575.97703704 114.18041992 578.95166016 C88.50223508 592.04847993 60.83711804 596.1362991 33.00561523 587.23730469 C25.97396368 584.82095321 19.48285447 581.38397969 12.89648438 577.97119141 C-10.14778048 566.17020202 -35.15501436 563.10654102 -60 571 C-66.07822134 573.09311299 -71.64567185 575.77359102 -77.25732422 578.90087891 C-101.35203672 592.27423175 -129.28861302 595.97968966 -155.96191406 588.42675781 C-164.48867626 585.85688075 -172.14427642 582.20211486 -180 578 C-201.38946696 566.61397196 -226.03563319 562.73153946 -249.609375 569.80859375 C-250.72828125 570.20175781 -251.8471875 570.59492187 -253 571 C-254.55460937 571.54333984 -254.55460937 571.54333984 -256.140625 572.09765625 C-261.64381443 574.22257887 -266.57572521 576.89751231 -271.625 579.9375 C-292.93084364 592.59520422 -320.01841765 595.36244247 -343.9375 589.52734375 C-353.9668803 586.88287824 -362.85465227 582.89194932 -372 578 C-398.31511986 563.99195141 -427.70408867 562.66434777 -455 575 Z M-439 612 C-437.28439442 616.65140123 -435.01128492 620.94532074 -432.6875 625.3125 C-432.11999023 626.3943457 -432.11999023 626.3943457 -431.54101562 627.49804688 C-430.77046259 628.95179753 -429.98254358 630.39647325 -429.17773438 631.83154297 C-428 634 -428 634 -427.00976562 636.28173828 C-425.87156858 638.6246844 -424.91841345 640.22939191 -423 642 C-419.06340718 643.18155534 -415.21433042 643.20079642 -411.125 643.25 C-408.86279767 643.35317449 -406.60103187 643.46642321 -404.33984375 643.58984375 C-403.24784668 643.64769043 -402.15584961 643.70553711 -401.03076172 643.76513672 C-387.85139154 644.78644767 -375.56300489 650.49030788 -364.10131836 656.71850586 C-355.53100024 661.36995033 -347.61678139 664.99597871 -338 667 C-336.67935547 667.28423828 -336.67935547 667.28423828 -335.33203125 667.57421875 C-312.8377184 670.44863856 -291.60374144 666.71245014 -272.1875 655 C-250.79751927 642.16050499 -223.04547161 639.54163909 -199.02001953 645.49023438 C-187.98924129 648.44421304 -178.29356794 653.30852549 -168.28564453 658.73120117 C-161.00533396 662.6246488 -154.14956006 665.41941132 -146 667 C-145.12472656 667.18691406 -144.24945313 667.37382813 -143.34765625 667.56640625 C-119.82726486 670.61280467 -99.15893472 665.79954788 -78.625 654.4375 C-55.77229396 641.90108395 -28.81058016 640.0142803 -3.76708984 646.5859375 C5.32201132 649.24676314 13.48470045 653.17321809 21.75292969 657.73706055 C28.60393714 661.46350677 35.4750532 663.93908247 43 666 C44.32451172 666.36738281 44.32451172 666.36738281 45.67578125 666.7421875 C66.73412952 671.52370981 88.29042917 666.83955011 107.2578125 657.40625 C134.78128005 643.7399061 162.55533098 638.30522379 192.52270508 647.90014648 C200.00872867 650.48126413 206.83187251 653.91682121 213.75292969 657.73706055 C220.60393714 661.46350677 227.4750532 663.93908247 235 666 C235.88300781 666.24492188 236.76601563 666.48984375 237.67578125 666.7421875 C243.77511412 668.127106 249.89776189 668.19705794 256.125 668.25 C256.9605542 668.25942627 257.7961084 668.26885254 258.65698242 668.27856445 C268.96972382 668.33421582 268.96972382 668.33421582 277.609375 663.515625 C278.66898438 661.89914062 278.66898438 661.89914062 279.75 660.25 C280.14703125 659.65525879 280.5440625 659.06051758 280.953125 658.44775391 C282.34528106 656.32291205 283.67713456 654.16867589 285 652 C285.55365234 651.09282227 286.10730469 650.18564453 286.67773438 649.25097656 C293.69255191 637.82257413 293.69255191 637.82257413 300 626 C299.44054687 626.17015625 298.88109375 626.3403125 298.3046875 626.515625 C295.53876122 627.35162844 292.76982627 628.17700543 290 629 C288.83339844 629.34804688 287.66679688 629.69609375 286.46484375 630.0546875 C285.25957031 630.40789063 284.05429687 630.76109375 282.8125 631.125 C281.68457031 631.45757813 280.55664062 631.79015625 279.39453125 632.1328125 C254.89974341 638.39039927 229.85696955 633.38613572 207.71484375 622.375 C182.99481217 610.14866159 158.83872931 604.90456544 132 613.5625 C125.0627213 615.92195104 118.79365683 619.10617359 112.40771484 622.66650391 C107.29521965 625.46193603 102.15379145 627.60233249 96.625 629.4375 C95.92439453 629.67210937 95.22378906 629.90671875 94.50195312 630.1484375 C69.36619893 638.09594444 41.59655347 635.41258816 18 624 C15.49928661 622.68414843 13.03169981 621.31135504 10.5625 619.9375 C-10.44324661 608.33772087 -34.29669928 606.36104346 -57.26953125 612.84765625 C-64.98281545 615.23029378 -71.98069945 618.41107843 -79.02832031 622.30981445 C-101.27176996 634.57087473 -129.54883328 638.56290951 -154.33740234 631.91088867 C-163.60728003 629.0995712 -172.75369527 625.22676001 -180.875 619.9375 C-199.39189579 608.3294292 -223.08538909 607.07719936 -244 611 C-254.70434013 613.52924498 -263.75081588 618.41649625 -273.35131836 623.61010742 C-295.26222697 635.24115261 -324.28321271 638.59936189 -348.24609375 631.33203125 C-356.84538557 628.28066963 -365.19840537 624.9371283 -372.875 619.9375 C-391.18165775 608.46122548 -418.5317107 605.1772369 -439 612 Z M-416 652 C-412.72025794 658.29798868 -409.01370147 663.92552738 -404.625 669.5 C-403.46590444 670.98288427 -402.3070479 672.46595539 -401.1484375 673.94921875 C-400.60026367 674.64837402 -400.05208984 675.3475293 -399.48730469 676.06787109 C-398.25600849 677.66742429 -397.07762969 679.30755492 -395.9140625 680.95703125 C-391.96543554 686.54628491 -388.40614139 688.75785051 -382 691 C-375.40760854 693.54706034 -369.24619971 696.35476299 -363.1875 700 C-343.85502487 711.47237184 -320.46909006 713.87591341 -298.7109375 708.95703125 C-288.85761159 706.41591036 -280.41570179 702.21817842 -271.5 697.4375 C-263.8077385 693.31457857 -256.58450446 689.845563 -248 688 C-247.22011719 687.82847412 -246.44023437 687.65694824 -245.63671875 687.48022461 C-238.47309185 686.0233362 -231.54928501 685.64970225 -224.25 685.6875 C-222.53321045 685.69595947 -222.53321045 685.69595947 -220.78173828 685.70458984 C-203.04856769 685.95838752 -187.18603593 690.60095008 -171.9375 699.5625 C-150.89622096 711.92717491 -126.42763223 714.05377892 -103 708 C-95.04107191 705.62391225 -87.94978268 701.94538169 -80.6875 698 C-72.3372096 693.4774109 -64.20800521 690.284543 -55 688 C-54.04738281 687.75636719 -53.09476563 687.51273438 -52.11328125 687.26171875 C-26.84420844 681.96278337 -2.41090917 688.07155422 20.0625 699.5625 C42.89689347 711.23118533 67.36306351 714.66467617 92.109375 706.74609375 C98.87156558 704.40848572 105.13700608 701.48859747 111.375 698 C134.92713999 684.83952449 162.77478002 682.40096875 188.71728516 689.31542969 C195.10226755 691.23024152 201.03398633 694.06337549 207 697 C209.46018599 698.19086971 211.92288156 699.37617428 214.38842773 700.5559082 C215.99010957 701.32506145 217.58766502 702.10289789 219.17993164 702.89135742 C229.68791362 708.23214087 229.68791362 708.23214087 241 708 C242.93278576 706.24877896 244.56452904 704.5872852 246.25 702.625 C246.72381104 702.09060303 247.19762207 701.55620605 247.68579102 701.00561523 C252.27161565 695.79350894 256.67089072 690.42638847 261 685 C262.11568359 683.66775391 262.11568359 683.66775391 263.25390625 682.30859375 C265.20107797 680.21657106 265.20107797 680.21657106 265 678 C263.86046875 677.97421875 262.7209375 677.9484375 261.546875 677.921875 C240.54103798 677.25114184 222.00625076 673.18082366 203.5625 662.9375 C182.96204892 651.51081392 158.67700865 648.87437789 136 655 C127.32529167 657.56206005 119.40587267 661.20440008 111.5 665.5625 C87.66224927 678.67367169 59.9821538 680.29498934 34 673 C26.08009189 670.53890706 18.79392344 666.95370103 11.5625 662.9375 C-9.05161009 651.50323752 -33.30985915 648.8939041 -56 655 C-66.01693364 657.92463387 -74.98684904 662.48916969 -84.12841797 667.44946289 C-90.56097619 670.89073023 -96.86796887 673.36438753 -104 675 C-104.86367188 675.22171875 -105.72734375 675.4434375 -106.6171875 675.671875 C-132.59617999 681.24418064 -157.56454184 675.40006849 -180.375 662.9375 C-201.44462999 651.44769063 -225.79840086 648.50355224 -249 655 C-257.38841981 657.5261188 -264.81304425 661.43777549 -272.5 665.5625 C-280.22480952 669.69993668 -287.40072234 673.08513353 -296 675 C-296.86109375 675.22042969 -297.7221875 675.44085937 -298.609375 675.66796875 C-324.58069854 681.26006009 -349.57174848 675.39613112 -372.375 662.9375 C-384.41655535 656.37093118 -397.545821 651.74720303 -411.4375 651.9375 C-412.24324463 651.9485376 -413.04898926 651.9595752 -413.87915039 651.97094727 C-414.92897095 651.98532837 -414.92897095 651.98532837 -416 652 Z M-253 699 C-254.55460937 699.54333984 -254.55460937 699.54333984 -256.140625 700.09765625 C-261.64381443 702.22257887 -266.57572521 704.89751231 -271.625 707.9375 C-292.93084364 720.59520422 -320.01841765 723.36244247 -343.9375 717.52734375 C-352.92855599 715.15665516 -361.03313147 711.76692904 -369.20703125 707.35546875 C-371.9324067 705.78169347 -371.9324067 705.78169347 -375 706 C-371.07808399 709.97195518 -367.14918523 713.93683201 -363.21411133 717.89575195 C-361.88086598 719.23895529 -360.54943254 720.58395996 -359.2199707 721.9309082 C-352.15915805 729.08214181 -345.12929956 735.97772156 -337.22827148 742.20483398 C-335.40010842 743.67765999 -333.76783372 745.15253608 -332.15234375 746.84765625 C-327.64690012 751.35309988 -323.93520536 753.49452006 -317.62475586 753.81811523 C-302.20101499 753.78065921 -289.40108775 749.19696378 -275.96142578 742.03466797 C-252.94052091 729.8909544 -224.59316707 723.79945997 -198.8125 730.6875 C-196.52303622 731.4010991 -194.24854753 732.16639214 -192 733 C-191.00484375 733.350625 -190.0096875 733.70125 -188.984375 734.0625 C-182.94603982 736.3874205 -177.35487742 739.40956768 -171.6875 742.5 C-151.53962488 753.4718615 -127.83269066 756.63777214 -105.3125 751.5 C-95.69389447 748.59898742 -86.69966846 744.04124101 -77.859375 739.32421875 C-55.81415165 727.66916214 -28.05445989 724.96611274 -4.0234375 731.67578125 C4.31277019 734.29671073 12.18680147 737.95038595 19.88671875 742.0546875 C41.45640969 753.51324896 65.83587682 757.31586989 89.6171875 750.19140625 C96.945781 747.61031963 103.86715509 744.60047467 110.77099609 741.04833984 C135.110415 728.54971932 163.42096273 724.07959889 190.0390625 732.31884766 C194.55653409 733.88803911 198.88503476 735.8292191 203.1796875 737.92578125 C205.81280552 739.12512045 205.81280552 739.12512045 208.02734375 738.98046875 C211.02266743 737.49170391 213.29212943 735.28833848 215.6875 733 C216.20989258 732.51104248 216.73228516 732.02208496 217.27050781 731.51831055 C221.94849356 727.11503872 226.50874987 722.593324 231 718 C227.52220495 716.15780163 223.92142382 714.78526795 220.25 713.375 C214.57133193 711.15513791 209.11615493 708.64843992 203.6875 705.875 C180.79666208 694.25676351 156.73153389 691.13439224 132 699 C125.81675823 701.15302471 120.04231953 703.96453768 114.23095703 706.95166016 C88.67327502 720.06333119 60.7057542 724.09429612 33.00561523 715.23730469 C25.97396368 712.82095321 19.48285447 709.38397969 12.89648438 705.97119141 C-10.1681731 694.15975894 -35.27126883 691.10842482 -60.140625 698.99609375 C-66.49756636 701.2586012 -72.29673989 704.19505877 -78.1875 707.4375 C-102.01937182 720.44625781 -129.71809829 723.85807468 -155.96191406 716.42675781 C-164.48867626 713.85688075 -172.14427642 710.20211486 -180 706 C-202.4646316 694.04164097 -228.60357217 690.42752248 -253 699 Z M-270.375 750 C-283.15891792 756.89972163 -295.58939191 760.91466362 -310 763 C-305.34310688 766.74863382 -300.65416624 770.37861984 -295.72949219 773.77050781 C-294.50173094 774.64332058 -293.29584493 775.54727266 -292.10644531 776.47167969 C-284.27740651 782.89719594 -284.27740651 782.89719594 -274.78417969 784.71777344 C-270.15010824 783.18817989 -266.08288805 780.67863446 -261.94873047 778.12695312 C-243.91017459 767.69523502 -216.62407037 768.86835049 -197 774 C-186.52473115 776.96899647 -177.206511 781.92585736 -167.6706543 787.08935547 C-160.61787785 790.84208982 -153.86852659 793.4157329 -146 795 C-145.12214844 795.18820312 -144.24429688 795.37640625 -143.33984375 795.5703125 C-119.81494905 798.59690714 -99.16425407 793.80249124 -78.625 782.4375 C-55.77229396 769.90108395 -28.81058016 768.0142803 -3.76708984 774.5859375 C5.32201132 777.24676314 13.48470045 781.17321809 21.75292969 785.73706055 C28.60393714 789.46350677 35.4750532 791.93908247 43 794 C44.32451172 794.36738281 44.32451172 794.36738281 45.67578125 794.7421875 C68.31018426 799.88156983 90.12151369 793.83398542 110.39868164 783.92163086 C124.57351479 776.99877308 140.30596802 769.6578997 156.546875 771.375 C168.09297083 772.56429743 173.93964735 767.70682222 182.640625 760.63671875 C183.39021484 760.01071777 184.13980469 759.3847168 184.91210938 758.73974609 C186.7006837 757.24940692 188.51052753 755.80865901 190.359375 754.39453125 C195.19250182 750.68949586 195.19250182 750.68949586 199 746 C175.64271983 735.35244706 151.57793177 734.43012856 127.50390625 743.16015625 C122.2234736 745.21574107 117.34854911 747.91167375 112.40795898 750.66650391 C107.29526579 753.4617198 102.15387469 755.60230486 96.625 757.4375 C95.92439453 757.67210937 95.22378906 757.90671875 94.50195312 758.1484375 C69.36619893 766.09594444 41.59655347 763.41258816 18 752 C15.49928661 750.68414843 13.03169981 749.31135504 10.5625 747.9375 C-10.44324661 736.33772087 -34.29669928 734.36104346 -57.26953125 740.84765625 C-64.98281545 743.23029378 -71.98069945 746.41107843 -79.02832031 750.30981445 C-101.27176996 762.57087473 -129.54883328 766.56290951 -154.33740234 759.91088867 C-163.71265597 757.06761336 -172.84556333 753.11549172 -181.125 747.875 C-208.5616314 730.57095254 -243.30197612 735.38817835 -270.375 750 Z M-266 791 C-256.39501549 796.82476856 -246.48144449 801.80147555 -236.25 806.4375 C-234.5652356 807.21722168 -234.5652356 807.21722168 -232.84643555 808.01269531 C-225.58534203 811.24647118 -218.87308784 813.03430979 -211 814 C-197.96486497 816.14634754 -185.78081538 819.29103884 -174.5625 826.46484375 C-167.12718843 830.87954179 -159.58054586 832.27626871 -151.1875 833.8125 C-149.73073815 834.09897754 -148.27435411 834.38738317 -146.81835938 834.67773438 C-121.50812416 839.6476751 -103.79971229 838.55617595 -80.6875 826 C-72.3372096 821.4774109 -64.20800521 818.284543 -55 816 C-54.04738281 815.75636719 -53.09476563 815.51273438 -52.11328125 815.26171875 C-27.89132403 810.18236395 -3.09040131 815.14020233 18.33984375 826.8203125 C19.36207031 827.37460937 20.38429688 827.92890625 21.4375 828.5 C22.30246094 829.0053125 23.16742187 829.510625 24.05859375 830.03125 C31.91483939 832.61869876 40.73383433 828.86038994 48.3125 826.5625 C49.48240479 826.21050537 50.65230957 825.85851074 51.85766602 825.49584961 C72.09956725 819.30666755 91.93346407 812.22150147 111 803 C111.6997998 802.66258789 112.39959961 802.32517578 113.12060547 801.97753906 C117.78087536 799.71634302 122.39967233 797.38051165 127 795 C127.73976074 794.61779297 128.47952148 794.23558594 129.24169922 793.84179688 C131.5393597 792.65059671 133.83304671 791.45214103 136.125 790.25 C137.17337036 789.70279297 137.17337036 789.70279297 138.24291992 789.14453125 C142.33535 786.97856317 146.23333572 784.69885603 150 782 C150 781.67 150 781.34 150 781 C136.45543367 781.43692149 124.10624132 786.61073552 112.375 793.0625 C88.111007 806.39792525 60.54302244 808.45246399 34 801 C26.08009189 798.53890706 18.79392344 794.95370103 11.5625 790.9375 C-9.05161009 779.50323752 -33.30985915 776.8939041 -56 783 C-66.01693364 785.92463387 -74.98684904 790.48916969 -84.12841797 795.44946289 C-90.56097619 798.89073023 -96.86796887 801.36438753 -104 803 C-104.86367188 803.22171875 -105.72734375 803.4434375 -106.6171875 803.671875 C-134.05824487 809.55778296 -159.15676163 802.46502339 -183.14794922 789.55053711 C-189.26079219 786.29628496 -195.25072476 783.66553134 -202 782 C-202.88816406 781.77828125 -203.77632813 781.5565625 -204.69140625 781.328125 C-223.60149668 777.43564463 -250.4998245 778.27431892 -266 791 Z M-87 840 C-87 840.66 -87 841.32 -87 842 C-56.80248116 842.27710012 -27.57279509 841.38298946 2.36328125 837 C3.35626221 836.855625 4.34924316 836.71125 5.37231445 836.5625 C7.88426343 836.02477535 9.77752892 835.26452644 12 834 C-21.96955669 815.6624517 -54.58836639 822.1833056 -87 840 Z " fill="#000099" transform="translate(578,88)"/>
<path d="M0 0 C1.57874908 -0.01925285 1.57874908 -0.01925285 3.18939209 -0.03889465 C4.90016937 -0.04997505 4.90016937 -0.04997505 6.64550781 -0.0612793 C7.82647034 -0.06935104 9.00743286 -0.07742279 10.22418213 -0.08573914 C12.73261039 -0.09958719 15.24105754 -0.1103061 17.74951172 -0.11816406 C21.54204569 -0.13524321 25.33367713 -0.17910807 29.12597656 -0.22338867 C52.47433023 -0.37468952 71.40827 3.16136639 88.84863281 20.17700195 C103.49851329 36.67836811 108.10767783 55.00341204 107.06005859 76.54907227 C105.50289135 95.90397782 94.75384621 109.13166304 80.89160156 121.6809082 C78.73574495 123.25967127 77.46986558 123.7972463 74.84863281 124.17700195 C72.2010549 122.91270913 69.74687101 121.59231231 67.22363281 120.11450195 C59.58540528 115.83151638 51.93291368 112.92856925 43.57910156 110.3684082 C40.7877172 109.47691896 38.38339253 108.60737817 35.84863281 107.17700195 C36.88761719 106.95786133 37.92660156 106.7387207 38.99707031 106.51293945 C51.24250628 103.79009789 61.53795363 100.04070842 68.84863281 89.17700195 C75.09831507 77.61914802 76.85090144 66.25037486 73.22363281 53.42700195 C69.82573009 43.60031463 64.76033128 36.66660821 55.84863281 31.17700195 C43.22394768 25.07785157 34.27728126 25.84781276 18.84863281 25.17700195 C18.84863281 51.90700195 18.84863281 78.63700195 18.84863281 106.17700195 C7.46363281 107.16700195 7.46363281 107.16700195 -4.15136719 108.17700195 C-6.79136719 108.50700195 -9.43136719 108.83700195 -12.15136719 109.17700195 C-12.24401205 95.83388308 -12.31510445 82.49084061 -12.35861588 69.14746571 C-12.37949828 62.9517106 -12.40782846 56.75617541 -12.453125 50.56054688 C-12.49655853 44.58238752 -12.52049937 38.60443982 -12.53087616 32.62613487 C-12.53827194 30.34433345 -12.55271398 28.06254372 -12.57428741 25.78083229 C-12.60328748 22.58686842 -12.6073245 19.39378119 -12.60546875 16.19970703 C-12.61984985 15.25455734 -12.63423096 14.30940765 -12.64904785 13.33561707 C-12.62253541 9.1237801 -12.51886285 6.78865299 -10.31048584 3.11308289 C-7.00748672 0.15128474 -4.26733691 0.04540659 0 0 Z " fill="#000099" transform="translate(722.1513671875,394.822998046875)"/>
<path d="M0 0 C1.59424805 -0.01836914 1.59424805 -0.01836914 3.22070312 -0.03710938 C4.23970703 -0.03904297 5.25871094 -0.04097656 6.30859375 -0.04296875 C7.24372803 -0.04707764 8.1788623 -0.05118652 9.14233398 -0.05541992 C11.5625 0.1875 11.5625 0.1875 14.5625 2.1875 C14.93164349 3.99533272 14.93164349 3.99533272 14.92326355 6.22439575 C14.92738754 7.06856049 14.93151154 7.91272522 14.9357605 8.7824707 C14.92497467 9.710354 14.91418884 10.6382373 14.90307617 11.59423828 C14.90373329 13.05771194 14.90373329 13.05771194 14.90440369 14.55075073 C14.90230794 17.78663917 14.87893971 21.0220142 14.85546875 24.2578125 C14.8498756 26.49697588 14.84560418 28.73614292 14.84260559 30.97531128 C14.83113477 36.87732018 14.80164828 42.77910865 14.76849365 48.68103027 C14.73784097 54.70008359 14.72411053 60.71917243 14.70898438 66.73828125 C14.67678078 78.55478451 14.6255574 90.37112395 14.5625 102.1875 C15.51090508 102.17417633 15.51090508 102.17417633 16.47846985 102.1605835 C23.04797339 102.07221858 29.61730867 102.01181089 36.18725586 101.96777344 C38.64045059 101.94763467 41.09359719 101.92032182 43.54663086 101.88574219 C47.06896833 101.83732518 50.59067223 101.81455371 54.11328125 101.796875 C55.21336014 101.77622986 56.31343903 101.75558472 57.44685364 101.73431396 C58.46768539 101.73401184 59.48851715 101.73370972 60.5402832 101.73339844 C61.88930473 101.72007477 61.88930473 101.72007477 63.26557922 101.70648193 C65.5625 102.1875 65.5625 102.1875 67.35510254 104.07275391 C68.78725251 106.58115206 68.91070438 108.08087215 68.85546875 110.953125 C68.84580078 111.84257812 68.83613281 112.73203125 68.82617188 113.6484375 C68.80103516 114.56882812 68.77589844 115.48921875 68.75 116.4375 C68.72969727 117.84128906 68.72969727 117.84128906 68.70898438 119.2734375 C68.67369954 121.57871327 68.62440281 123.8828106 68.5625 126.1875 C65.87675618 127.00621381 63.1891428 127.81758988 60.5 128.625 C59.37174805 128.97014648 59.37174805 128.97014648 58.22070312 129.32226562 C36.36341619 135.85106562 12.3580339 132.06836982 -7.62890625 121.5 C-13.74303136 117.88196864 -13.74303136 117.88196864 -15.4375 116.1875 C-15.5373871 114.75450971 -15.56824971 113.31663707 -15.57121277 111.88017273 C-15.57547775 110.9506076 -15.57974274 110.02104248 -15.58413696 109.06330872 C-15.58345718 107.52122993 -15.58345718 107.52122993 -15.58276367 105.94799805 C-15.58612228 104.87163086 -15.5894809 103.79526367 -15.59294128 102.6862793 C-15.6024855 99.10724756 -15.60439625 95.52826244 -15.60546875 91.94921875 C-15.60867933 89.47158285 -15.61204325 86.99394714 -15.61555481 84.51631165 C-15.62155506 79.31336019 -15.62339383 74.11042537 -15.62280273 68.9074707 C-15.62226872 63.55783108 -15.62930468 58.20826365 -15.64331055 52.85864258 C-15.65994923 46.41250478 -15.66685937 39.96643194 -15.66619301 33.52027321 C-15.66737549 31.05904588 -15.67181217 28.59781793 -15.67952538 26.1366024 C-15.68929629 22.69605389 -15.68645839 19.25573761 -15.68041992 15.81518555 C-15.68603943 14.79320572 -15.69165894 13.77122589 -15.69744873 12.71827698 C-15.69325424 11.78025238 -15.68905975 10.84222778 -15.68473816 9.8757782 C-15.68528293 9.06221202 -15.68582769 8.24864584 -15.68638897 7.41042614 C-15.40665149 4.91197973 -14.76925808 3.31135908 -13.4375 1.1875 C-9.4488168 -0.8068416 -4.38515918 0.00264964 0 0 Z " fill="#000099" transform="translate(225.4375,394.8125)"/>
<path d="M0 0 C2.70556641 -0.34057617 2.70556641 -0.34057617 6.1015625 -0.29296875 C7.31328125 -0.28330078 8.525 -0.27363281 9.7734375 -0.26367188 C11.04445313 -0.23853516 12.31546875 -0.21339844 13.625 -0.1875 C14.90375 -0.17396484 16.1825 -0.16042969 17.5 -0.14648438 C20.66708282 -0.11103196 23.83333541 -0.06161441 27 0 C28.58426902 3.51033392 29.24869677 6.23686866 29.24050903 10.08100891 C29.24325836 11.08075241 29.24600769 12.08049591 29.24884033 13.11053467 C29.24164978 14.19594543 29.23445923 15.2813562 29.22705078 16.3996582 C29.22734283 17.55130966 29.22763489 18.70296112 29.22793579 19.88951111 C29.22654327 23.69334465 29.2109854 27.49698195 29.1953125 31.30078125 C29.1915821 33.93922315 29.18873526 36.57766644 29.18673706 39.21611023 C29.18052692 45.44918773 29.16412243 51.68219487 29.14403808 57.91524142 C29.12166456 65.01315678 29.110682 72.11107554 29.10064721 79.2090174 C29.07975577 93.80604785 29.04458886 108.40302294 29 123 C27.40303661 123.81197681 25.80450772 124.62087514 24.20532227 125.4284668 C23.31531021 125.87925095 22.42529816 126.3300351 21.50831604 126.79447937 C18.69539441 128.14639635 15.97116586 129.08288416 12.9375 129.8125 C12.01839844 130.04582031 11.09929688 130.27914062 10.15234375 130.51953125 C7.43951963 130.93301002 5.03364073 131.04908583 2.30297852 131.0300293 C1.49611099 131.02569382 0.68924347 131.02135834 -0.14207458 131.01689148 C-0.75518997 131.01131729 -1.36830536 131.0057431 -2 131 C-2.04669162 114.36269405 -2.08197489 97.72540931 -2.10362434 81.0880537 C-2.11394311 73.36328633 -2.12801487 65.63855963 -2.15087891 57.91381836 C-2.17079445 51.18203988 -2.18371207 44.45029086 -2.18817699 37.71848375 C-2.19078749 34.15304151 -2.19693569 30.58768356 -2.21146011 27.0222683 C-2.22753124 23.04502135 -2.22798087 19.06785734 -2.22705078 15.09057617 C-2.23424133 13.90446747 -2.24143188 12.71835876 -2.24884033 11.49630737 C-2.246091 10.41517166 -2.24334167 9.33403595 -2.24050903 8.22013855 C-2.24235262 7.27898791 -2.24419621 6.33783728 -2.24609566 5.36816692 C-2 3 -2 3 0 0 Z " fill="#000099" transform="translate(654,395)"/>
<path d="M0 0 C1.15886719 0.00837891 2.31773437 0.01675781 3.51171875 0.02539062 C4.72214844 0.05439453 5.93257812 0.08339844 7.1796875 0.11328125 C9.00693359 0.1277832 9.00693359 0.1277832 10.87109375 0.14257812 C19.88707386 0.25816761 19.88707386 0.25816761 21.0546875 1.42578125 C21.17129755 4.29872878 21.22271552 7.14794337 21.23168945 10.02197266 C21.24154625 11.37593391 21.24154625 11.37593391 21.25160217 12.75724792 C21.27141001 15.76394733 21.28302247 18.77059628 21.29296875 21.77734375 C21.29704428 22.80579784 21.3011198 23.83425194 21.30531883 24.89387131 C21.32622449 30.35112052 21.34049922 35.80834435 21.34985352 41.265625 C21.36084793 46.87267779 21.39515334 52.47932599 21.43502522 58.08623695 C21.46134953 62.41892161 21.46955995 66.75151291 21.47313499 71.08427048 C21.47797063 73.14846869 21.48949696 75.2126636 21.50817299 77.27678299 C21.65029442 94.04475988 20.75079021 108.62756058 10.0546875 122.42578125 C9.63316406 123.039375 9.21164062 123.65296875 8.77734375 124.28515625 C6.50052312 125.79271095 4.84801605 125.59762956 2.22216797 125.08886719 C-2.54322722 123.63101482 -6.9406042 121.27902722 -11.3828125 119.05078125 C-17.82232151 115.85804857 -24.1568511 112.80457464 -30.9453125 110.42578125 C-28.34464714 108.69200434 -25.96474371 107.5128678 -23.1328125 106.23828125 C-17.30670497 103.34649065 -13.36941718 99.91997624 -10.88999939 93.8364563 C-9.77581978 89.81384877 -9.66046588 86.05104347 -9.67407227 81.91357422 C-9.66623215 80.66368713 -9.66623215 80.66368713 -9.65823364 79.3885498 C-9.64802921 77.58798978 -9.64221947 75.78740056 -9.64035225 73.98681259 C-9.63667893 71.1370753 -9.61992801 68.28768298 -9.59959412 65.4380188 C-9.54425905 57.33911541 -9.51344132 49.24016272 -9.48901367 41.14111328 C-9.47315195 36.18038719 -9.44295468 31.21990931 -9.40424919 26.25931168 C-9.39259434 24.37028763 -9.3866688 22.48121926 -9.38656807 20.59215927 C-9.38637631 17.95424133 -9.36813393 15.31701058 -9.34594727 12.67919922 C-9.35281303 11.50866501 -9.35281303 11.50866501 -9.3598175 10.31448364 C-9.3167371 7.09748383 -9.14395206 4.79013601 -7.58973694 1.9393158 C-5.141581 -0.3139763 -3.27694846 -0.04477787 0 0 Z " fill="#000099" transform="translate(602.9453125,394.57421875)"/>
<path d="M0 0 C0.95068359 -0.04125 1.90136719 -0.0825 2.88085938 -0.125 C3.80318359 -0.1353125 4.72550781 -0.145625 5.67578125 -0.15625 C6.93708862 -0.18428711 6.93708862 -0.18428711 8.22387695 -0.21289062 C11.93295207 0.86039243 13.87109722 3.22081011 15.6875 6.5 C16.3816151 9.82658208 16.32111836 13.06483733 16.25512695 16.45263672 C16.25585709 17.4386235 16.25658722 18.42461029 16.25733948 19.44047546 C16.25386636 22.6874463 16.21501674 25.93296841 16.17578125 29.1796875 C16.16645218 31.43554908 16.15933652 33.6914208 16.15434265 35.94729614 C16.13528048 41.87573365 16.08618542 47.80355565 16.03082275 53.73175049 C15.97961401 59.78462396 15.95682507 65.8375972 15.93164062 71.890625 C15.87806674 83.76068664 15.79276261 95.63029207 15.6875 107.5 C15.08800537 107.66604736 14.48851074 107.83209473 13.87084961 108.00317383 C11.12081269 108.76794246 8.37291997 109.54016103 5.625 110.3125 C4.68205078 110.57353516 3.73910156 110.83457031 2.76757812 111.10351562 C-1.36664773 112.27031805 -5.382899 113.44241613 -9.30859375 115.19921875 C-12.3125 116.5 -12.3125 116.5 -15.3125 116.5 C-15.38261102 102.3745555 -15.43529889 88.24913802 -15.46793652 74.12355518 C-15.48360002 67.56464928 -15.50485112 61.00586017 -15.53881836 54.44702148 C-15.57138688 48.11874428 -15.58934786 41.7905795 -15.59713173 35.46222496 C-15.6026797 33.04646726 -15.61351336 30.63071578 -15.62969017 28.21500587 C-15.65143064 24.83436351 -15.65446828 21.45418722 -15.65307617 18.07348633 C-15.663862 17.07223221 -15.67464783 16.07097809 -15.6857605 15.03938293 C-15.63230868 3.0630422 -11.29967392 0.12109497 0 0 Z " fill="#000099" transform="translate(322.3125,394.5)"/>
<path d="M0 0 C1.20849609 0.01289063 2.41699219 0.02578125 3.66210938 0.0390625 C4.92474609 0.07257813 6.18738281 0.10609375 7.48828125 0.140625 C8.76251953 0.15867187 10.03675781 0.17671875 11.34960938 0.1953125 C14.50074966 0.24252059 17.65039265 0.30836116 20.80078125 0.390625 C22.38619587 3.56145425 21.94495096 6.97908559 21.94262695 10.46118164 C21.94783859 11.71277573 21.94783859 11.71277573 21.95315552 12.98965454 C21.96051895 14.80611057 21.9658612 16.62257563 21.96944618 18.43904305 C21.97660823 21.31917234 21.99227516 24.19913091 22.01078796 27.07920837 C22.06325331 35.26982202 22.11118635 43.46034517 22.12670898 51.65112305 C22.13682278 56.65920395 22.16623908 61.66685973 22.20802879 66.67477226 C22.22030136 68.57919528 22.22546692 70.48367848 22.22323036 72.38813972 C22.22086238 75.06398513 22.24315842 77.73862489 22.27075195 80.41430664 C22.26415054 81.19232132 22.25754913 81.970336 22.25074768 82.77192688 C22.37151366 89.95447889 24.56063944 95.93713635 29.42578125 101.265625 C30.20953125 101.966875 30.99328125 102.668125 31.80078125 103.390625 C32.79078125 104.875625 32.79078125 104.875625 33.80078125 106.390625 C32.93296021 106.420354 32.93296021 106.420354 32.04760742 106.45068359 C17.90516453 106.83461008 17.90516453 106.83461008 3.95703125 108.98828125 C1.53400543 109.44040382 -0.73987957 109.45557234 -3.19921875 109.390625 C-9.50045221 95.83991421 -9.51322848 81.96465645 -9.5 67.32421875 C-9.50389547 65.51392012 -9.50823186 63.70362239 -9.51298523 61.89332581 C-9.52039309 58.12733979 -9.52019268 54.36144767 -9.51489258 50.59545898 C-9.50905639 45.77016199 -9.5261543 40.94524369 -9.54923725 36.12000942 C-9.56394902 32.39426939 -9.56485063 28.66862167 -9.56172752 24.94285774 C-9.56224043 23.1626516 -9.56747239 21.38244025 -9.57753944 19.6022625 C-9.58985863 17.12317691 -9.58314362 14.64484473 -9.5715332 12.16577148 C-9.57917694 11.43381561 -9.58682068 10.70185974 -9.59469604 9.94772339 C-9.56246591 6.83847589 -9.35937004 4.68280014 -7.85214233 1.93305969 C-5.34934093 -0.40244314 -3.36335082 -0.06316152 0 0 Z " fill="#000099" transform="translate(520.19921875,394.609375)"/>
</svg>
