<?xml version="1.0" standalone="no"?>
<!DOCTYPE svg PUBLIC "-//W3C//DTD SVG 20010904//EN"
 "http://www.w3.org/TR/2001/REC-SVG-20010904/DTD/svg10.dtd">
<svg version="1.0" xmlns="http://www.w3.org/2000/svg"
 width="512.000000pt" height="512.000000pt" viewBox="0 0 512.000000 512.000000"
 preserveAspectRatio="xMidYMid meet">

<g transform="translate(0.000000,512.000000) scale(0.100000,-0.100000)"
fill="#000000" stroke="none">
<path d="M2285 5016 c-337 -67 -606 -351 -800 -846 -43 -111 -106 -324 -97
-328 4 -1 47 10 95 25 l88 28 34 101 c115 344 277 609 455 743 123 92 279 139
372 112 42 -13 42 -13 21 -30 -12 -9 -41 -27 -64 -41 -66 -39 -179 -160 -237
-252 -29 -47 -71 -130 -93 -184 -51 -124 -102 -318 -86 -322 7 -1 49 10 95 25
l83 28 34 102 c19 56 46 126 61 155 44 87 124 196 181 248 61 54 149 105 157
91 21 -33 48 -193 53 -308 3 -73 9 -133 12 -133 27 0 154 47 159 58 9 26 -16
273 -37 350 -21 80 -19 82 44 53 79 -36 178 -173 216 -299 8 -27 17 -41 25
-38 7 3 32 10 55 16 23 6 52 15 65 20 l23 9 -30 73 c-65 159 -161 285 -260
345 -58 34 -152 63 -208 63 -27 0 -45 10 -88 51 -93 88 -187 112 -328 85z"/>
<path d="M3375 4403 c-9 -26 -19 -82 -21 -123 -3 -41 -43 -950 -89 -2020 -46
-1070 -87 -1993 -91 -2051 -5 -89 -4 -107 9 -112 8 -3 199 35 424 84 1131 249
1103 242 1103 258 1 57 -534 3638 -544 3649 -11 11 -286 41 -385 42 -17 0 -67
42 -181 155 -86 85 -162 155 -168 155 -6 0 -17 3 -25 6 -11 4 -19 -8 -32 -43z"/>
</g>
</svg>
