<?xml version="1.0" encoding="UTF-8"?>
<!DOCTYPE svg PUBLIC "-//W3C//DTD SVG 1.1//EN" "http://www.w3.org/Graphics/SVG/1.1/DTD/svg11.dtd">
<svg xmlns="http://www.w3.org/2000/svg" version="1.1" width="2048px" height="2048px" style="shape-rendering:geometricPrecision; text-rendering:geometricPrecision; image-rendering:optimizeQuality; fill-rule:evenodd; clip-rule:evenodd" xmlns:xlink="http://www.w3.org/1999/xlink">
<g><path style="opacity:1" fill="#2A7AE4" d="M 179.5,-0.5 C 742.167,-0.5 1304.83,-0.5 1867.5,-0.5C 1952.64,11.8043 2009.81,58.4709 2039,139.5C 2042.82,152.765 2045.65,166.099 2047.5,179.5C 2047.5,742.167 2047.5,1304.83 2047.5,1867.5C 2035.19,1952.65 1988.53,2009.81 1907.5,2039C 1894.23,2042.82 1880.9,2045.65 1867.5,2047.5C 1304.83,2047.5 742.167,2047.5 179.5,2047.5C 94.3544,2035.19 37.1878,1988.53 8,1907.5C 4.18196,1894.23 1.34862,1880.9 -0.5,1867.5C -0.5,1304.83 -0.5,742.167 -0.5,179.5C 11.8056,94.3544 58.4723,37.1878 139.5,8C 152.765,4.18196 166.099,1.34862 179.5,-0.5 Z"/></g>
<g><path style="opacity:1" fill="#fefefe" d="M 1839.5,985.5 C 1839.83,1047.67 1839.5,1109.67 1838.5,1171.5C 1772.78,1130.81 1701.11,1110.48 1623.5,1110.5C 1589.63,1109.7 1557.3,1116.2 1526.5,1130C 1505.28,1140.22 1489.78,1156.06 1480,1177.5C 1472.53,1203.42 1476.86,1227.08 1493,1248.5C 1505.81,1263.48 1520.64,1275.98 1537.5,1286C 1549.84,1293.51 1562.51,1300.51 1575.5,1307C 1608.6,1322.22 1641.93,1336.88 1675.5,1351C 1719.8,1370.13 1760.46,1394.79 1797.5,1425C 1857.36,1478.26 1884.53,1545.09 1879,1625.5C 1873.96,1732.77 1821.8,1806.6 1722.5,1847C 1676.89,1863.52 1629.89,1873.52 1581.5,1877C 1509.22,1882.57 1437.55,1878.23 1366.5,1864C 1332.18,1856.67 1299.35,1845.17 1268,1829.5C 1267.33,1762.83 1267.33,1696.17 1268,1629.5C 1359.24,1704.69 1463.4,1732.85 1580.5,1714C 1602.11,1709.02 1621.78,1700.02 1639.5,1687C 1664.03,1664.4 1671.86,1636.9 1663,1604.5C 1659.2,1594.22 1653.86,1584.89 1647,1576.5C 1628.62,1556.57 1607.46,1540.41 1583.5,1528C 1540.21,1506.69 1496.21,1487.02 1451.5,1469C 1403.85,1447.98 1361.68,1419.15 1325,1382.5C 1282.83,1335.28 1262.33,1279.78 1263.5,1216C 1264.78,1119.74 1307.11,1048.07 1390.5,1001C 1442.58,974.144 1497.92,958.477 1556.5,954C 1630.8,948.109 1704.47,952.443 1777.5,967C 1798.52,972.062 1819.19,978.229 1839.5,985.5 Z"/></g>
<g><path style="opacity:1" fill="#fefffe" d="M 1187.5,1135.5 C 1101.83,1135.5 1016.17,1135.5 930.5,1135.5C 930.5,1379.5 930.5,1623.5 930.5,1867.5C 862.833,1867.5 795.167,1867.5 727.5,1867.5C 727.5,1623.5 727.5,1379.5 727.5,1135.5C 642.167,1135.5 556.833,1135.5 471.5,1135.5C 471.5,1080.83 471.5,1026.17 471.5,971.5C 710.167,971.5 948.833,971.5 1187.5,971.5C 1187.5,1026.17 1187.5,1080.83 1187.5,1135.5 Z"/></g>
<g><path style="opacity:1" fill="#a4c3e6" d="M 1839.5,985.5 C 1840.83,1047.67 1840.83,1110 1839.5,1172.5C 1838.89,1172.38 1838.56,1172.04 1838.5,1171.5C 1839.5,1109.67 1839.83,1047.67 1839.5,985.5 Z"/></g>
<g><path style="opacity:1" fill="#7da9da" d="M 471.5,1135.5 C 556.833,1135.5 642.167,1135.5 727.5,1135.5C 727.5,1379.5 727.5,1623.5 727.5,1867.5C 726.5,1624 726.167,1380.33 726.5,1136.5C 641.332,1136.83 556.332,1136.5 471.5,1135.5 Z"/></g>
<g><path style="opacity:1" fill="#2A7AE4" d="M 1187.5,1135.5 C 1102.33,1136.5 1017,1136.83 931.5,1136.5C 931.833,1380.33 931.5,1624 930.5,1867.5C 930.5,1623.5 930.5,1379.5 930.5,1135.5C 1016.17,1135.5 1101.83,1135.5 1187.5,1135.5 Z"/></g>
</svg>
